<svg width="37" height="37" viewBox="0 0 37 37" fill="none" xmlns="http://www.w3.org/2000/svg">
<rect width="37" height="37" rx="10" fill="black"/>
<path fill-rule="evenodd" clip-rule="evenodd" d="M9.62 26.3933C9.62 26.1316 9.70505 25.8807 9.85644 25.6956C10.0078 25.5106 10.2132 25.4067 10.4273 25.4067H26.5727C26.7868 25.4067 26.9922 25.5106 27.1436 25.6956C27.2949 25.8807 27.38 26.1316 27.38 26.3933C27.38 26.655 27.2949 26.906 27.1436 27.091C26.9922 27.276 26.7868 27.38 26.5727 27.38H10.4273C10.2132 27.38 10.0078 27.276 9.85644 27.091C9.70505 26.906 9.62 26.655 9.62 26.3933ZM9.62 18.5C9.62 18.2383 9.70505 17.9874 9.85644 17.8023C10.0078 17.6173 10.2132 17.5133 10.4273 17.5133H26.5727C26.7868 17.5133 26.9922 17.6173 27.1436 17.8023C27.2949 17.9874 27.38 18.2383 27.38 18.5C27.38 18.7617 27.2949 19.0126 27.1436 19.1977C26.9922 19.3827 26.7868 19.4867 26.5727 19.4867H10.4273C10.2132 19.4867 10.0078 19.3827 9.85644 19.1977C9.70505 19.0126 9.62 18.7617 9.62 18.5ZM9.62 10.6067C9.62 10.345 9.70505 10.094 9.85644 9.90898C10.0078 9.72395 10.2132 9.62 10.4273 9.62H26.5727C26.7868 9.62 26.9922 9.72395 27.1436 9.90898C27.2949 10.094 27.38 10.345 27.38 10.6067C27.38 10.8683 27.2949 11.1193 27.1436 11.3043C26.9922 11.4894 26.7868 11.5933 26.5727 11.5933H10.4273C10.2132 11.5933 10.0078 11.4894 9.85644 11.3043C9.70505 11.1193 9.62 10.8683 9.62 10.6067Z" fill="white"/>
</svg>
